<svg width="32" height="31" viewBox="0 0 32 31" fill="none" xmlns="http://www.w3.org/2000/svg">
<path d="M0 7.545C0 6.09525 1.13107 4.92 2.52631 4.92C3.92156 4.92 5.05263 6.09525 5.05263 7.545V10.1699H6.73685V9.29501C6.73685 7.84526 7.86792 6.67001 9.26317 6.67001C10.6584 6.67001 11.7895 7.84526 11.7895 9.29501V10.1699H26.9473C29.7378 10.1699 32 12.5204 32 15.4199H0V7.545Z" fill="white"/>
<path d="M13.4737 25.92V20.67H18.5263V21.545H25.614C26.1769 21.545 26.6583 21.1825 26.8539 20.67C26.9142 20.512 26.9473 20.3398 26.9473 20.1596V16.8054C26.9473 16.0402 26.3503 15.42 25.614 15.42L32 15.4199L32 20.67C32 23.5695 29.7379 25.92 26.9474 25.92H13.4737Z" fill="white"/>
<path d="M18.5263 15.42V20.67H13.4737V15.42H18.5263Z" fill="white"/>
<path d="M6.73676 20.6701C7.66692 20.6701 8.42097 19.8866 8.42097 18.9201C8.42097 17.9536 7.66692 17.1701 6.73676 17.1701C5.8066 17.1701 5.05255 17.9536 5.05255 18.9201C5.05255 19.8866 5.8066 20.6701 6.73676 20.6701Z" fill="white"/>
</svg>
