<svg width="143" height="32" viewBox="0 0 143 32" fill="none" xmlns="http://www.w3.org/2000/svg">
<path d="M0 8.12501C0 6.67526 1.13107 5.5 2.52631 5.5C3.92156 5.5 5.05263 6.67526 5.05263 8.12501V10.7499H6.73685V9.87502C6.73685 8.42527 7.86792 7.25001 9.26317 7.25001C10.6584 7.25001 11.7895 8.42527 11.7895 9.87502V10.7499H26.9473C29.7378 10.7499 32 13.1004 32 15.9999H0V8.12501Z" fill="#09090B"/>
<path d="M13.4737 26.5V21.25H18.5263V22.125H25.614C26.1769 22.125 26.6583 21.7625 26.8539 21.25C26.9142 21.092 26.9473 20.9198 26.9473 20.7396V17.3854C26.9473 16.6202 26.3503 16 25.614 16L32 15.9999L32 21.25C32 24.1495 29.7379 26.5 26.9474 26.5H13.4737Z" fill="#09090B"/>
<path d="M18.5263 16V21.25H13.4737V16H18.5263Z" fill="#09090B"/>
<path d="M6.73676 21.2501C7.66692 21.2501 8.42097 20.4666 8.42097 19.5001C8.42097 18.5336 7.66692 17.7501 6.73676 17.7501C5.8066 17.7501 5.05255 18.5336 5.05255 19.5001C5.05255 20.4666 5.8066 21.2501 6.73676 21.2501Z" fill="#09090B"/>
<path d="M45.76 25V11.8H40.768V8.2H54.952V11.8H49.84V25H45.76ZM61.0399 25.24C59.7119 25.24 58.5279 24.952 57.4879 24.376C56.4639 23.8 55.6479 23.016 55.0399 22.024C54.4479 21.032 54.1519 19.896 54.1519 18.616C54.1519 17.336 54.4479 16.2 55.0399 15.208C55.6479 14.216 56.4639 13.432 57.4879 12.856C58.5279 12.28 59.7119 11.992 61.0399 11.992C62.3679 11.992 63.5439 12.28 64.5679 12.856C65.6079 13.432 66.4239 14.216 67.0159 15.208C67.6079 16.2 67.9039 17.336 67.9039 18.616C67.9039 19.896 67.6079 21.032 67.0159 22.024C66.4239 23.016 65.6079 23.8 64.5679 24.376C63.5439 24.952 62.3679 25.24 61.0399 25.24ZM61.0399 21.928C61.6159 21.928 62.1279 21.784 62.5759 21.496C63.0239 21.208 63.3759 20.816 63.6319 20.32C63.8879 19.824 64.0079 19.256 63.9919 18.616C64.0079 17.976 63.8879 17.408 63.6319 16.912C63.3759 16.4 63.0239 16 62.5759 15.712C62.1279 15.424 61.6159 15.28 61.0399 15.28C60.4639 15.28 59.9439 15.424 59.4799 15.712C59.0319 16 58.6799 16.4 58.4239 16.912C58.1679 17.408 58.0479 17.976 58.0639 18.616C58.0479 19.256 58.1679 19.824 58.4239 20.32C58.6799 20.816 59.0319 21.208 59.4799 21.496C59.9439 21.784 60.4639 21.928 61.0399 21.928ZM70.4149 30.28V12.256H74.0629L74.2069 15.112L73.4869 14.896C73.5989 14.368 73.8709 13.888 74.3029 13.456C74.7349 13.024 75.2789 12.68 75.9349 12.424C76.6069 12.152 77.3109 12.016 78.0469 12.016C79.1349 12.016 80.1029 12.304 80.9509 12.88C81.7989 13.44 82.4629 14.216 82.9429 15.208C83.4389 16.184 83.6869 17.32 83.6869 18.616C83.6869 19.896 83.4389 21.032 82.9429 22.024C82.4629 23.016 81.7909 23.8 80.9269 24.376C80.0789 24.936 79.1029 25.216 77.9989 25.216C77.2789 25.216 76.5909 25.08 75.9349 24.808C75.2789 24.536 74.7269 24.168 74.2789 23.704C73.8309 23.24 73.5349 22.736 73.3909 22.192L74.2789 21.856V30.28H70.4149ZM77.0629 21.976C77.6389 21.976 78.1429 21.84 78.5749 21.568C79.0069 21.28 79.3429 20.888 79.5829 20.392C79.8229 19.896 79.9429 19.304 79.9429 18.616C79.9429 17.944 79.8229 17.36 79.5829 16.864C79.3429 16.352 79.0069 15.96 78.5749 15.688C78.1589 15.4 77.6549 15.256 77.0629 15.256C76.4709 15.256 75.9589 15.392 75.5269 15.664C75.0949 15.936 74.7589 16.328 74.5189 16.84C74.2789 17.352 74.1589 17.944 74.1589 18.616C74.1589 19.304 74.2789 19.896 74.5189 20.392C74.7589 20.888 75.0949 21.28 75.5269 21.568C75.9589 21.84 76.4709 21.976 77.0629 21.976ZM94.3308 25V8.2H101.363C102.595 8.2 103.723 8.408 104.747 8.824C105.771 9.224 106.651 9.8 107.387 10.552C108.139 11.304 108.715 12.192 109.115 13.216C109.515 14.24 109.715 15.368 109.715 16.6C109.715 17.832 109.515 18.968 109.115 20.008C108.715 21.032 108.139 21.92 107.387 22.672C106.651 23.408 105.771 23.984 104.747 24.4C103.723 24.8 102.595 25 101.363 25H94.3308ZM98.4108 22.216L97.8588 21.4H101.243C101.915 21.4 102.515 21.288 103.043 21.064C103.571 20.824 104.019 20.496 104.387 20.08C104.771 19.664 105.067 19.16 105.275 18.568C105.483 17.976 105.587 17.32 105.587 16.6C105.587 15.88 105.483 15.224 105.275 14.632C105.067 14.04 104.771 13.536 104.387 13.12C104.019 12.704 103.571 12.384 103.043 12.16C102.515 11.92 101.915 11.8 101.243 11.8H97.7868L98.4108 11.032V22.216ZM118.462 25.24C117.134 25.24 115.95 24.952 114.91 24.376C113.886 23.8 113.07 23.016 112.462 22.024C111.87 21.032 111.574 19.896 111.574 18.616C111.574 17.336 111.87 16.2 112.462 15.208C113.07 14.216 113.886 13.432 114.91 12.856C115.95 12.28 117.134 11.992 118.462 11.992C119.79 11.992 120.966 12.28 121.99 12.856C123.03 13.432 123.846 14.216 124.438 15.208C125.03 16.2 125.326 17.336 125.326 18.616C125.326 19.896 125.03 21.032 124.438 22.024C123.846 23.016 123.03 23.8 121.99 24.376C120.966 24.952 119.79 25.24 118.462 25.24ZM118.462 21.928C119.038 21.928 119.55 21.784 119.998 21.496C120.446 21.208 120.798 20.816 121.054 20.32C121.31 19.824 121.43 19.256 121.414 18.616C121.43 17.976 121.31 17.408 121.054 16.912C120.798 16.4 120.446 16 119.998 15.712C119.55 15.424 119.038 15.28 118.462 15.28C117.886 15.28 117.366 15.424 116.902 15.712C116.454 16 116.102 16.4 115.846 16.912C115.59 17.408 115.47 17.976 115.486 18.616C115.47 19.256 115.59 19.824 115.846 20.32C116.102 20.816 116.454 21.208 116.902 21.496C117.366 21.784 117.886 21.928 118.462 21.928ZM133.669 30.52C132.629 30.52 131.589 30.368 130.549 30.064C129.525 29.76 128.693 29.368 128.053 28.888L129.397 26.2C129.733 26.424 130.101 26.616 130.501 26.776C130.917 26.952 131.349 27.088 131.797 27.184C132.245 27.28 132.701 27.328 133.165 27.328C133.981 27.328 134.645 27.208 135.157 26.968C135.669 26.728 136.053 26.36 136.309 25.864C136.565 25.384 136.693 24.776 136.693 24.04V21.904L137.437 22.024C137.325 22.552 137.045 23.032 136.597 23.464C136.165 23.896 135.629 24.248 134.989 24.52C134.349 24.776 133.669 24.904 132.949 24.904C131.797 24.904 130.765 24.64 129.853 24.112C128.957 23.568 128.245 22.824 127.717 21.88C127.205 20.92 126.949 19.816 126.949 18.568C126.949 17.288 127.205 16.16 127.717 15.184C128.229 14.192 128.933 13.416 129.829 12.856C130.725 12.28 131.733 11.992 132.853 11.992C133.333 11.992 133.789 12.048 134.221 12.16C134.669 12.272 135.077 12.424 135.445 12.616C135.829 12.792 136.165 13.008 136.453 13.264C136.757 13.504 136.997 13.768 137.173 14.056C137.365 14.344 137.493 14.64 137.557 14.944L136.765 15.136L136.909 12.256H140.557V23.968C140.557 25.008 140.397 25.928 140.077 26.728C139.773 27.544 139.317 28.232 138.709 28.792C138.117 29.368 137.397 29.8 136.549 30.088C135.701 30.376 134.741 30.52 133.669 30.52ZM133.765 21.928C134.389 21.928 134.925 21.792 135.373 21.52C135.837 21.232 136.189 20.84 136.429 20.344C136.685 19.848 136.813 19.264 136.813 18.592C136.813 17.92 136.685 17.336 136.429 16.84C136.189 16.328 135.837 15.936 135.373 15.664C134.925 15.376 134.389 15.232 133.765 15.232C133.157 15.232 132.629 15.376 132.181 15.664C131.733 15.936 131.381 16.328 131.125 16.84C130.885 17.336 130.765 17.92 130.765 18.592C130.765 19.264 130.885 19.848 131.125 20.344C131.381 20.84 131.733 21.232 132.181 21.52C132.629 21.792 133.157 21.928 133.765 21.928Z" fill="#09090B"/>
</svg>
