<svg width="40" height="40" viewBox="0 0 40 40" fill="none" xmlns="http://www.w3.org/2000/svg">
<g clip-path="url(#clip0_90_542)">
<rect width="40" height="40" rx="20" fill="#9BD6FB"/>
<path d="M21.0918 13.7662C20.177 13.7662 19.2622 13.7662 18.3474 13.7662C17.4569 13.7662 16.6929 13.6513 15.9324 14.1614C14.2367 15.2988 11.8595 16.901 11.6293 19.1342C11.4102 21.2587 12.549 23.0522 14.0772 24.4143C15.0155 25.2506 15.9279 25.6507 17.1619 25.8194C18.9279 26.0609 20.4028 25.1064 21.7285 24.0301C23.5514 22.5501 25.3906 20.7763 25.9822 18.4097C26.2807 17.2156 26.0104 16.5607 25.4388 15.5446C24.8084 14.4238 23.9161 13.6027 22.6231 13.3217C21.903 13.1651 21.2169 13.4699 20.499 13.4699" stroke="black" stroke-width="0.5" stroke-linecap="round"/>
<path d="M15.8556 26.017C15.8556 30.9824 15.8556 35.9479 15.8556 40.9133C15.8556 41.3754 15.8453 41.8054 15.7568 42.2635C15.6463 42.8356 15.5943 43.4067 15.5098 43.9815C15.4895 44.1195 15.5261 44.5975 15.411 44.6895C15.1216 44.9211 15.0457 45.5899 14.917 45.9245C14.7624 46.3266 14.7986 46.2911 14.4231 46.3746C14.05 46.4575 12.8871 46.6563 12.6941 46.2703" stroke="black" stroke-width="0.5" stroke-linecap="round"/>
<path d="M19.4122 25.6218C19.4122 30.086 19.4122 34.5501 19.4122 39.0142C19.4122 40.4991 19.569 42.0838 19.3134 43.5534C19.1766 44.3406 19.0171 45.1124 19.0171 45.9135C19.0171 46.0495 19.8332 45.7213 20.027 45.6995C20.4756 45.649 20.9369 45.6775 21.3882 45.6775" stroke="black" stroke-width="0.5" stroke-linecap="round"/>
<path d="M26.3281 18.3109H36.1089" stroke="black" stroke-width="0.5" stroke-linecap="round"/>
<path d="M4 19.0024H11.0146" stroke="black" stroke-width="0.5" stroke-linecap="round"/>
<path d="M4.08008 17.4662C4.08008 17.4545 4.19267 17.5852 4.20124 17.5949C4.39757 17.8176 4.58429 18.0498 4.75401 18.2934C4.88196 18.4771 4.98612 18.6856 5.11938 18.8632" stroke="black" stroke-width="0.5" stroke-linecap="round"/>
<path d="M5.19389 19.1457C5.1406 19.4388 4.68176 19.7405 4.50214 19.966C4.33903 20.1707 4.13281 20.3845 4.01605 20.618" stroke="black" stroke-width="0.5" stroke-linecap="round"/>
<path d="M34.1614 18.3974C34.1706 18.3361 34.2213 18.2854 34.2576 18.2389C34.551 17.8637 34.8589 17.4998 35.1688 17.1382C35.4307 16.8327 35.7072 16.533 35.9441 16.2072" stroke="black" stroke-width="0.5" stroke-linecap="round"/>
<path d="M33.8491 18.3605C33.8913 18.4207 33.957 18.4606 34.0139 18.5055C34.2388 18.6829 34.4575 18.868 34.6729 19.0569C34.8661 19.2263 35.071 19.3846 35.2528 19.5665" stroke="black" stroke-width="0.5" stroke-linecap="round"/>
<path d="M16.6468 18.7213C16.6468 19.2283 16.6017 19.7671 16.7978 20.2465C16.892 20.4768 17.0479 20.6961 17.2817 20.8007C17.5716 20.9304 18.0044 20.8992 18.2888 20.7748C18.6277 20.6265 18.8502 20.3335 19.0622 20.0428C19.2389 19.8004 19.4412 19.5298 19.5306 19.2394C19.6063 18.9935 19.6991 18.7207 19.6991 18.4608" stroke="black" stroke-width="0.5" stroke-linecap="round"/>
<path d="M22.2861 17.2324C22.2861 17.4165 22.148 17.59 22.3316 17.7494C22.402 17.8105 22.5245 17.8701 22.6211 17.8425C22.7185 17.8146 22.874 17.702 22.9262 17.615C23.0766 17.3642 22.7444 17.0126 22.4908 17.1393" stroke="black" stroke-width="0.5" stroke-linecap="round"/>
<path d="M14.5809 17.158C14.5282 17.158 14.4763 17.1463 14.4692 17.2138C14.4591 17.3098 14.4254 17.4148 14.3989 17.5074C14.3731 17.5978 14.4354 17.7148 14.4734 17.7907C14.5204 17.8849 14.6125 18.1393 14.7443 18.1444C14.888 18.1499 15.1316 17.9314 15.1392 17.7907C15.1547 17.5044 14.9841 17.2272 14.767 17.0463" stroke="black" stroke-width="0.5" stroke-linecap="round"/>
<path d="M19.4386 13.5659C19.3843 13.1316 19.2214 12.7086 19.1087 12.2879C19.0873 12.208 19.0961 12.0211 18.9919 12.0211" stroke="black" stroke-width="0.5" stroke-linecap="round"/>
<path d="M19.6432 13.4356C19.6432 12.7924 19.7354 11.9475 20.2574 11.5" stroke="black" stroke-width="0.5" stroke-linecap="round"/>
</g>
<defs>
<clipPath id="clip0_90_542">
<rect width="40" height="40" rx="20" fill="white"/>
</clipPath>
</defs>
</svg>
